<?xml version="1.0" standalone="no"?>
<!DOCTYPE svg PUBLIC "-//W3C//DTD SVG 20010904//EN"
 "http://www.w3.org/TR/2001/REC-SVG-20010904/DTD/svg10.dtd">
<svg version="1.0" xmlns="http://www.w3.org/2000/svg"
 width="100.000000pt" height="100.000000pt" viewBox="0 0 100.000000 100.000000"
 preserveAspectRatio="xMidYMid meet">

<g transform="translate(0.000000,100.000000) scale(0.100000,-0.100000)"
fill="#000000" stroke="none">
<path d="M480 821 c14 -4 29 -16 35 -27 8 -16 14 -19 26 -11 20 13 47 3 56
-20 4 -10 15 -24 25 -31 35 -25 16 -72 -30 -72 -27 0 -52 21 -52 44 0 10 -9
16 -25 16 -16 0 -25 -6 -25 -16 0 -30 -27 -44 -88 -44 -63 0 -87 14 -80 46 2
9 12 22 23 28 11 6 25 17 31 25 6 8 20 12 33 8 13 -3 21 -1 21 8 0 20 -39 7
-82 -27 -65 -51 -40 -98 50 -98 45 0 52 -3 52 -20 0 -11 -4 -20 -10 -20 -5 0
-10 -7 -10 -15 0 -12 -16 -15 -85 -15 -84 0 -85 0 -85 -25 0 -18 5 -25 20 -25
11 0 20 -7 20 -15 0 -9 9 -15 25 -15 16 0 25 -6 25 -15 0 -8 9 -15 20 -15 13
0 20 -7 20 -20 0 -11 -7 -20 -15 -20 -9 0 -15 -9 -15 -25 0 -14 -4 -25 -10
-25 -5 0 -10 -13 -10 -30 0 -16 -4 -30 -10 -30 -5 0 -10 -13 -10 -30 0 -27 3
-30 30 -30 20 0 30 5 30 15 0 8 7 15 15 15 8 0 15 7 15 15 0 10 10 15 30 15
23 0 30 4 30 20 0 17 7 20 45 20 34 0 45 -4 45 -16 0 -21 40 -53 68 -54 13 0
22 -6 22 -15 0 -23 56 -20 62 3 5 16 -2 19 -50 21 -65 3 -72 6 -72 31 0 12 14
25 38 37 20 9 43 25 50 35 16 21 35 23 51 4 6 -7 22 -11 36 -8 18 3 27 -1 32
-14 4 -11 13 -24 21 -30 25 -19 10 -48 -28 -55 -35 -6 -35 -6 -5 -8 58 -2 70
31 30 84 -28 35 -57 45 -160 54 -24 2 -19 41 5 41 11 0 20 7 20 15 0 9 9 15
25 15 16 0 25 6 25 15 0 8 9 15 20 15 15 0 20 7 20 25 0 25 -1 25 -85 25 -69
0 -85 3 -85 15 0 8 -4 15 -10 15 -5 0 -10 9 -10 20 0 13 7 20 18 20 21 0 52
30 52 49 0 7 -17 33 -37 58 -28 34 -42 44 -60 40 -14 -2 -29 3 -39 14 -10 11
-27 19 -38 18 -18 -1 -18 -2 4 -8z m53 -138 c8 -16 25 -47 37 -70 l24 -43 77
0 c75 0 115 -15 71 -27 -11 -3 -23 -11 -26 -19 -3 -8 -14 -14 -25 -14 -10 0
-21 -7 -25 -15 -3 -8 -12 -15 -21 -15 -20 0 -20 -56 0 -64 28 -10 15 -26 -17
-21 -21 4 -27 3 -15 -3 16 -7 15 -10 -13 -30 -24 -18 -30 -19 -30 -7 0 12 -12
15 -54 15 -45 0 -54 -3 -59 -20 -3 -12 -14 -20 -27 -20 -11 0 -34 -14 -50 -32
-23 -25 -32 -30 -42 -20 -9 9 -9 15 0 24 7 7 12 22 12 34 0 13 5 26 10 29 6 3
10 15 10 26 0 11 7 22 15 25 20 8 20 64 0 64 -9 0 -18 7 -21 15 -4 8 -15 15
-25 15 -11 0 -22 6 -25 14 -3 8 -15 16 -26 19 -44 12 -4 27 71 27 l77 0 24 43
c12 23 29 54 37 70 8 15 16 27 18 27 2 0 10 -12 18 -27z m159 -405 c-9 -9 -15
-9 -24 0 -9 9 -7 12 12 12 19 0 21 -3 12 -12z"/>
<path d="M507 630 c-3 -11 -1 -20 4 -20 5 0 9 9 9 20 0 11 -2 20 -4 20 -2 0
-6 -9 -9 -20z"/>
<path d="M478 583 c-10 -2 -18 -11 -18 -18 0 -9 -14 -15 -37 -18 l-38 -4 43
-1 c31 -2 42 2 42 13 0 8 7 15 15 15 8 0 15 5 15 10 0 6 -1 9 -2 9 -2 -1 -11
-3 -20 -6z"/>
<path d="M640 523 c0 -11 3 -14 8 -7 4 6 14 14 22 17 10 4 8 6 -7 6 -16 1 -23
-5 -23 -16z"/>
<path d="M390 506 c0 -2 9 -6 20 -9 11 -3 20 -1 20 4 0 5 -9 9 -20 9 -11 0
-20 -2 -20 -4z"/>
<path d="M600 470 c0 -22 2 -40 4 -40 2 0 6 18 8 40 2 22 0 40 -4 40 -5 0 -8
-18 -8 -40z"/>
<path d="M420 425 c0 -16 -6 -25 -15 -25 -8 0 -15 -8 -14 -17 0 -11 3 -13 6
-5 2 6 11 12 19 12 9 0 14 11 14 30 0 17 -2 30 -5 30 -3 0 -5 -11 -5 -25z"/>
</g>
</svg>
